<?xml version="1.0" encoding="utf-8" standalone="no"?>
<!DOCTYPE svg PUBLIC "-//W3C//DTD SVG 1.1//EN"
  "http://www.w3.org/Graphics/SVG/1.1/DTD/svg11.dtd">
<svg xmlns:xlink="http://www.w3.org/1999/xlink" width="868.162383pt" height="387.832637pt" viewBox="0 0 868.162383 387.832637" xmlns="http://www.w3.org/2000/svg" version="1.1">
 <metadata>
  <rdf:RDF xmlns:dc="http://purl.org/dc/elements/1.1/" xmlns:cc="http://creativecommons.org/ns#" xmlns:rdf="http://www.w3.org/1999/02/22-rdf-syntax-ns#">
   <cc:Work>
    <dc:type rdf:resource="http://purl.org/dc/dcmitype/StillImage"/>
    <dc:date>2026-10-03T20:34:48.040382</dc:date>
    <dc:format>image/svg+xml</dc:format>
    <dc:creator>
     <cc:Agent>
      <dc:title>Matplotlib v3.11.1, https://matplotlib.org/</dc:title>
     </cc:Agent>
    </dc:creator>
   </cc:Work>
  </rdf:RDF>
 </metadata>
 <defs>
  <style type="text/css">*{stroke-linejoin: round; stroke-linecap: butt}</style>
 </defs>
 <g id="figure_1">
  <g id="patch_1">
   <path d="M 0 387.832637 
L 868.162383 387.832637 
L 868.162383 0 
L 0 0 
z
" style="fill: #ffffff"/>
  </g>
  <g id="axes_1">
   <g id="patch_2">
    <path d="M 50.859922 348.632637 
L 478.644783 348.632637 
L 478.644783 73.028945 
L 50.859922 73.028945 
z
" style="fill: #ffffff"/>
   </g>
   <g id="patch_3">
    <path d="M 71.23063 331.85676 
L 442.696476 331.85676 
L 442.696476 92.201375 
L 71.23063 92.201375 
L 71.23063 331.85676 
z
" clip-path="url(#p006c77abc1)" style="fill: none; stroke: #000000; stroke-width: 1.2; stroke-linejoin: miter"/>
   </g>
   <g id="matplotlib.axis_1">
    <g id="xtick_1">
     <g id="line2d_1">
      <defs>
       <path id="m8d10ec81c0" d="M 0 0 
L 0 3.5 
" style="stroke: #000000; stroke-width: 0.8"/>
      </defs>
      <g>
       <use xlink:href="#m8d10ec81c0" x="71.23063" y="348.632637" style="stroke: #000000; stroke-width: 0.8"/>
      </g>
     </g>
     <g id="text_1">
      <!-- −10 -->
      <g transform="translate(60.150669 363.610176) scale(0.105 -0.105)">
       <defs>
        <path id="DejaVuSans-c9c" d="M 678 2272 
L 4684 2272 
L 4684 1741 
L 678 1741 
L 678 2272 
z
" transform="scale(0.015625)"/>
        <path id="DejaVuSans-14" d="M 794 531 
L 1825 531 
L 1825 4091 
L 703 3866 
L 703 4441 
L 1819 4666 
L 2450 4666 
L 2450 531 
L 3481 531 
L 3481 0 
L 794 0 
L 794 531 
z
" transform="scale(0.015625)"/>
        <path id="DejaVuSans-13" d="M 2034 4250 
Q 1547 4250 1301 3770 
Q 1056 3291 1056 2328 
Q 1056 1369 1301 889 
Q 1547 409 2034 409 
Q 2525 409 2770 889 
Q 3016 1369 3016 2328 
Q 3016 3291 2770 3770 
Q 2525 4250 2034 4250 
z
M 2034 4750 
Q 2819 4750 3233 4129 
Q 3647 3509 3647 2328 
Q 3647 1150 3233 529 
Q 2819 -91 2034 -91 
Q 1250 -91 836 529 
Q 422 1150 422 2328 
Q 422 3509 836 4129 
Q 1250 4750 2034 4750 
z
" transform="scale(0.015625)"/>
       </defs>
       <use xlink:href="#DejaVuSans-c9c"/>
       <use xlink:href="#DejaVuSans-14" transform="translate(83.796875 0)"/>
       <use xlink:href="#DejaVuSans-13" transform="translate(147.421875 0)"/>
      </g>
     </g>
    </g>
    <g id="xtick_2">
     <g id="line2d_2">
      <g>
       <use xlink:href="#m8d10ec81c0" x="191.058322" y="348.632637" style="stroke: #000000; stroke-width: 0.8"/>
      </g>
     </g>
     <g id="text_2">
      <!-- 0 -->
      <g transform="translate(187.718009 363.610176) scale(0.105 -0.105)">
       <use xlink:href="#DejaVuSans-13"/>
      </g>
     </g>
    </g>
    <g id="xtick_3">
     <g id="line2d_3">
      <g>
       <use xlink:href="#m8d10ec81c0" x="310.886014" y="348.632637" style="stroke: #000000; stroke-width: 0.8"/>
      </g>
     </g>
     <g id="text_3">
      <!-- 10 -->
      <g transform="translate(304.205389 363.610176) scale(0.105 -0.105)">
       <use xlink:href="#DejaVuSans-14"/>
       <use xlink:href="#DejaVuSans-13" transform="translate(63.625 0)"/>
      </g>
     </g>
    </g>
    <g id="xtick_4">
     <g id="line2d_4">
      <g>
       <use xlink:href="#m8d10ec81c0" x="442.696476" y="348.632637" style="stroke: #000000; stroke-width: 0.8"/>
      </g>
     </g>
     <g id="text_4">
      <!-- 21 -->
      <g transform="translate(436.015851 363.610176) scale(0.105 -0.105)">
       <defs>
        <path id="DejaVuSans-15" d="M 1228 531 
L 3431 531 
L 3431 0 
L 469 0 
L 469 531 
Q 828 903 1448 1529 
Q 2069 2156 2228 2338 
Q 2531 2678 2651 2914 
Q 2772 3150 2772 3378 
Q 2772 3750 2511 3984 
Q 2250 4219 1831 4219 
Q 1534 4219 1204 4116 
Q 875 4013 500 3803 
L 500 4441 
Q 881 4594 1212 4672 
Q 1544 4750 1819 4750 
Q 2544 4750 2975 4387 
Q 3406 4025 3406 3419 
Q 3406 3131 3298 2873 
Q 3191 2616 2906 2266 
Q 2828 2175 2409 1742 
Q 1991 1309 1228 531 
z
" transform="scale(0.015625)"/>
       </defs>
       <use xlink:href="#DejaVuSans-15"/>
       <use xlink:href="#DejaVuSans-14" transform="translate(63.625 0)"/>
      </g>
     </g>
    </g>
    <g id="text_5">
     <!-- $x/D$ -->
     <g transform="translate(255.827353 378.110176) scale(0.105 -0.105)">
      <defs>
       <path id="DejaVuSans-Oblique-5b" d="M 3841 3500 
L 2234 1784 
L 3219 0 
L 2559 0 
L 1819 1388 
L 531 0 
L -166 0 
L 1556 1844 
L 641 3500 
L 1300 3500 
L 1972 2234 
L 3144 3500 
L 3841 3500 
z
" transform="scale(0.015625)"/>
       <path id="DejaVuSans-12" d="M 1625 4666 
L 2156 4666 
L 531 -594 
L 0 -594 
L 1625 4666 
z
" transform="scale(0.015625)"/>
       <path id="DejaVuSans-Oblique-27" d="M 1081 4666 
L 2438 4666 
Q 3519 4666 4070 4208 
Q 4622 3750 4622 2847 
Q 4622 2250 4412 1698 
Q 4203 1147 3834 769 
Q 3463 381 2891 190 
Q 2319 0 1538 0 
L 172 0 
L 1081 4666 
z
M 1613 4147 
L 909 519 
L 1734 519 
Q 2794 519 3375 1128 
Q 3956 1738 3956 2847 
Q 3956 3519 3581 3833 
Q 3206 4147 2406 4147 
L 1613 4147 
z
" transform="scale(0.015625)"/>
      </defs>
      <use xlink:href="#DejaVuSans-Oblique-5b" transform="translate(0 0.09375)"/>
      <use xlink:href="#DejaVuSans-12" transform="translate(59.179688 0.09375)"/>
      <use xlink:href="#DejaVuSans-Oblique-27" transform="translate(92.871094 0.09375)"/>
     </g>
    </g>
   </g>
   <g id="matplotlib.axis_2">
    <g id="ytick_1">
     <g id="line2d_5">
      <defs>
       <path id="mde89f72f45" d="M 0 0 
L -3.5 0 
" style="stroke: #000000; stroke-width: 0.8"/>
      </defs>
      <g>
       <use xlink:href="#mde89f72f45" x="50.859922" y="331.85676" style="stroke: #000000; stroke-width: 0.8"/>
      </g>
     </g>
     <g id="text_6">
      <!-- −10 -->
      <g transform="translate(21.7 335.84553) scale(0.105 -0.105)">
       <use xlink:href="#DejaVuSans-c9c"/>
       <use xlink:href="#DejaVuSans-14" transform="translate(83.796875 0)"/>
       <use xlink:href="#DejaVuSans-13" transform="translate(147.421875 0)"/>
      </g>
     </g>
    </g>
    <g id="ytick_2">
     <g id="line2d_6">
      <g>
       <use xlink:href="#mde89f72f45" x="50.859922" y="212.029068" style="stroke: #000000; stroke-width: 0.8"/>
      </g>
     </g>
     <g id="text_7">
      <!-- 0 -->
      <g transform="translate(37.179297 216.017837) scale(0.105 -0.105)">
       <use xlink:href="#DejaVuSans-13"/>
      </g>
     </g>
    </g>
    <g id="ytick_3">
     <g id="line2d_7">
      <g>
       <use xlink:href="#mde89f72f45" x="50.859922" y="92.201375" style="stroke: #000000; stroke-width: 0.8"/>
      </g>
     </g>
     <g id="text_8">
      <!-- 10 -->
      <g transform="translate(30.498672 96.190145) scale(0.105 -0.105)">
       <use xlink:href="#DejaVuSans-14"/>
       <use xlink:href="#DejaVuSans-13" transform="translate(63.625 0)"/>
      </g>
     </g>
    </g>
    <g id="text_9">
     <!-- $y/D$ -->
     <g transform="translate(15.177539 219.755791) rotate(-90) scale(0.105 -0.105)">
      <defs>
       <path id="DejaVuSans-Oblique-5c" d="M 1588 -325 
Q 1188 -997 936 -1164 
Q 684 -1331 294 -1331 
L -159 -1331 
L -63 -850 
L 269 -850 
Q 509 -850 678 -719 
Q 847 -588 1056 -206 
L 1234 128 
L 459 3500 
L 1069 3500 
L 1650 819 
L 3256 3500 
L 3859 3500 
L 1588 -325 
z
" transform="scale(0.015625)"/>
      </defs>
      <use xlink:href="#DejaVuSans-Oblique-5c" transform="translate(0 0.09375)"/>
      <use xlink:href="#DejaVuSans-12" transform="translate(59.179688 0.09375)"/>
      <use xlink:href="#DejaVuSans-Oblique-27" transform="translate(92.871094 0.09375)"/>
     </g>
    </g>
   </g>
   <g id="line2d_8">
    <path d="M 71.23063 212.029068 
L 442.696476 212.029068 
" clip-path="url(#p006c77abc1)" style="fill: none; stroke-dasharray: 3.2,2.4; stroke-dashoffset: 0; stroke: #000000; stroke-width: 0.8"/>
   </g>
   <g id="line2d_9">
    <path d="M 71.23063 331.85676 
L 71.23063 305.494668 
" clip-path="url(#p006c77abc1)" style="fill: none; stroke: #000000; stroke-width: 0.8"/>
   </g>
   <g id="line2d_10">
    <path d="M 191.058322 218.020452 
L 191.058322 305.494668 
" clip-path="url(#p006c77abc1)" style="fill: none; stroke: #000000; stroke-width: 0.8"/>
   </g>
   <g id="line2d_11">
    <path d="M 203.041091 218.020452 
L 203.041091 305.494668 
" clip-path="url(#p006c77abc1)" style="fill: none; stroke: #000000; stroke-width: 0.8"/>
   </g>
   <g id="line2d_12">
    <path d="M 442.696476 331.85676 
L 442.696476 305.494668 
" clip-path="url(#p006c77abc1)" style="fill: none; stroke: #000000; stroke-width: 0.8"/>
   </g>
   <g id="line2d_13">
    <path d="M 400.756783 92.201375 
L 437.903368 92.201375 
" clip-path="url(#p006c77abc1)" style="fill: none; stroke: #000000; stroke-width: 0.8"/>
   </g>
   <g id="line2d_14">
    <path d="M 400.756783 212.029068 
L 437.903368 212.029068 
" clip-path="url(#p006c77abc1)" style="fill: none; stroke: #000000; stroke-width: 0.8"/>
   </g>
   <g id="patch_4">
    <path d="M 50.859922 348.632637 
L 50.859922 73.028945 
" style="fill: none; stroke: #000000; stroke-width: 0.8; stroke-linejoin: miter; stroke-linecap: square"/>
   </g>
   <g id="patch_5">
    <path d="M 478.644783 348.632637 
L 478.644783 73.028945 
" style="fill: none; stroke: #000000; stroke-width: 0.8; stroke-linejoin: miter; stroke-linecap: square"/>
   </g>
   <g id="patch_6">
    <path d="M 50.859922 348.632637 
L 478.644783 348.632637 
" style="fill: none; stroke: #000000; stroke-width: 0.8; stroke-linejoin: miter; stroke-linecap: square"/>
   </g>
   <g id="patch_7">
    <path d="M 50.859922 73.028945 
L 478.644783 73.028945 
" style="fill: none; stroke: #000000; stroke-width: 0.8; stroke-linejoin: miter; stroke-linecap: square"/>
   </g>
   <g id="patch_8">
    <path d="M 191.058322 218.020452 
L 203.041091 218.020452 
L 203.041091 206.037683 
L 191.058322 206.037683 
z
" clip-path="url(#p006c77abc1)" style="fill: #c7c7c7; stroke: #000000; stroke-width: 1.2; stroke-linejoin: miter"/>
   </g>
   <g id="text_10">
    <!-- $U_\infty$ -->
    <g transform="translate(95.196168 132.936422) scale(0.11 -0.11)">
     <defs>
      <path id="DejaVuSans-Oblique-38" d="M 991 4666 
L 1625 4666 
L 1075 1831 
Q 1041 1641 1027 1517 
Q 1013 1394 1013 1300 
Q 1013 869 1253 645 
Q 1494 422 1959 422 
Q 2563 422 2898 753 
Q 3234 1084 3378 1831 
L 3928 4666 
L 4563 4666 
L 4000 1753 
Q 3816 809 3300 359 
Q 2784 -91 1888 -91 
Q 1188 -91 780 261 
Q 372 613 372 1216 
Q 372 1325 387 1461 
Q 403 1597 434 1753 
L 991 4666 
z
" transform="scale(0.015625)"/>
      <path id="DejaVuSans-ca8" d="M 2916 1091 
Q 2819 1203 2666 1466 
Q 2456 1091 2272 925 
Q 2041 725 1681 725 
Q 1259 725 981 1041 
Q 688 1372 688 1919 
Q 688 2444 981 2800 
Q 1244 3116 1688 3116 
Q 1916 3116 2084 3022 
Q 2281 2919 2416 2741 
Q 2541 2581 2666 2366 
Q 2875 2741 3059 2906 
Q 3291 3106 3650 3106 
Q 4072 3106 4350 2791 
Q 4644 2459 4644 1913 
Q 4644 1388 4350 1031 
Q 4088 716 3644 716 
Q 3416 716 3247 809 
Q 3078 894 2916 1091 
z
M 1647 1134 
Q 2163 1134 2472 1884 
Q 2075 2703 1647 2703 
Q 1334 2703 1175 2478 
Q 1003 2238 1003 1919 
Q 1003 1569 1175 1353 
Q 1350 1134 1647 1134 
z
M 3684 2697 
Q 3219 2697 2859 1947 
Q 3253 1128 3684 1128 
Q 3997 1128 4156 1353 
Q 4328 1594 4328 1913 
Q 4328 2263 4156 2478 
Q 3981 2697 3684 2697 
z
" transform="scale(0.015625)"/>
     </defs>
     <use xlink:href="#DejaVuSans-Oblique-38" transform="translate(0 0.09375)"/>
     <use xlink:href="#DejaVuSans-ca8" transform="translate(73.193359 -14.906201) scale(0.7)"/>
    </g>
   </g>
   <g id="text_11">
    <!-- symmetry / slip -->
    <g transform="translate(276.162829 85.484945) scale(0.105 -0.105)">
     <defs>
      <path id="DejaVuSans-56" d="M 2834 3397 
L 2834 2853 
Q 2591 2978 2328 3040 
Q 2066 3103 1784 3103 
Q 1356 3103 1142 2972 
Q 928 2841 928 2578 
Q 928 2378 1081 2264 
Q 1234 2150 1697 2047 
L 1894 2003 
Q 2506 1872 2764 1633 
Q 3022 1394 3022 966 
Q 3022 478 2636 193 
Q 2250 -91 1575 -91 
Q 1294 -91 989 -36 
Q 684 19 347 128 
L 347 722 
Q 666 556 975 473 
Q 1284 391 1588 391 
Q 1994 391 2212 530 
Q 2431 669 2431 922 
Q 2431 1156 2273 1281 
Q 2116 1406 1581 1522 
L 1381 1569 
Q 847 1681 609 1914 
Q 372 2147 372 2553 
Q 372 3047 722 3315 
Q 1072 3584 1716 3584 
Q 2034 3584 2315 3537 
Q 2597 3491 2834 3397 
z
" transform="scale(0.015625)"/>
      <path id="DejaVuSans-5c" d="M 2059 -325 
Q 1816 -950 1584 -1140 
Q 1353 -1331 966 -1331 
L 506 -1331 
L 506 -850 
L 844 -850 
Q 1081 -850 1212 -737 
Q 1344 -625 1503 -206 
L 1606 56 
L 191 3500 
L 800 3500 
L 1894 763 
L 2988 3500 
L 3597 3500 
L 2059 -325 
z
" transform="scale(0.015625)"/>
      <path id="DejaVuSans-50" d="M 3328 2828 
Q 3544 3216 3844 3400 
Q 4144 3584 4550 3584 
Q 5097 3584 5394 3201 
Q 5691 2819 5691 2113 
L 5691 0 
L 5113 0 
L 5113 2094 
Q 5113 2597 4934 2840 
Q 4756 3084 4391 3084 
Q 3944 3084 3684 2787 
Q 3425 2491 3425 1978 
L 3425 0 
L 2847 0 
L 2847 2094 
Q 2847 2600 2669 2842 
Q 2491 3084 2119 3084 
Q 1678 3084 1418 2786 
Q 1159 2488 1159 1978 
L 1159 0 
L 581 0 
L 581 3500 
L 1159 3500 
L 1159 2956 
Q 1356 3278 1631 3431 
Q 1906 3584 2284 3584 
Q 2666 3584 2933 3390 
Q 3200 3197 3328 2828 
z
" transform="scale(0.015625)"/>
      <path id="DejaVuSans-48" d="M 3597 1894 
L 3597 1613 
L 953 1613 
Q 991 1019 1311 708 
Q 1631 397 2203 397 
Q 2534 397 2845 478 
Q 3156 559 3463 722 
L 3463 178 
Q 3153 47 2828 -22 
Q 2503 -91 2169 -91 
Q 1331 -91 842 396 
Q 353 884 353 1716 
Q 353 2575 817 3079 
Q 1281 3584 2069 3584 
Q 2775 3584 3186 3129 
Q 3597 2675 3597 1894 
z
M 3022 2063 
Q 3016 2534 2758 2815 
Q 2500 3097 2075 3097 
Q 1594 3097 1305 2825 
Q 1016 2553 972 2059 
L 3022 2063 
z
" transform="scale(0.015625)"/>
      <path id="DejaVuSans-57" d="M 1172 4494 
L 1172 3500 
L 2356 3500 
L 2356 3053 
L 1172 3053 
L 1172 1153 
Q 1172 725 1289 603 
Q 1406 481 1766 481 
L 2356 481 
L 2356 0 
L 1766 0 
Q 1100 0 847 248 
Q 594 497 594 1153 
L 594 3053 
L 172 3053 
L 172 3500 
L 594 3500 
L 594 4494 
L 1172 4494 
z
" transform="scale(0.015625)"/>
      <path id="DejaVuSans-55" d="M 2631 2963 
Q 2534 3019 2420 3045 
Q 2306 3072 2169 3072 
Q 1681 3072 1420 2755 
Q 1159 2438 1159 1844 
L 1159 0 
L 581 0 
L 581 3500 
L 1159 3500 
L 1159 2956 
Q 1341 3275 1631 3429 
Q 1922 3584 2338 3584 
Q 2397 3584 2469 3576 
Q 2541 3569 2628 3553 
L 2631 2963 
z
" transform="scale(0.015625)"/>
      <path id="DejaVuSans-3" transform="scale(0.015625)"/>
      <path id="DejaVuSans-4f" d="M 603 4863 
L 1178 4863 
L 1178 0 
L 603 0 
L 603 4863 
z
" transform="scale(0.015625)"/>
      <path id="DejaVuSans-4c" d="M 603 3500 
L 1178 3500 
L 1178 0 
L 603 0 
L 603 3500 
z
M 603 4863 
L 1178 4863 
L 1178 4134 
L 603 4134 
L 603 4863 
z
" transform="scale(0.015625)"/>
      <path id="DejaVuSans-53" d="M 1159 525 
L 1159 -1331 
L 581 -1331 
L 581 3500 
L 1159 3500 
L 1159 2969 
Q 1341 3281 1617 3432 
Q 1894 3584 2278 3584 
Q 2916 3584 3314 3078 
Q 3713 2572 3713 1747 
Q 3713 922 3314 415 
Q 2916 -91 2278 -91 
Q 1894 -91 1617 61 
Q 1341 213 1159 525 
z
M 3116 1747 
Q 3116 2381 2855 2742 
Q 2594 3103 2138 3103 
Q 1681 3103 1420 2742 
Q 1159 2381 1159 1747 
Q 1159 1113 1420 752 
Q 1681 391 2138 391 
Q 2594 391 2855 752 
Q 3116 1113 3116 1747 
z
" transform="scale(0.015625)"/>
     </defs>
     <use xlink:href="#DejaVuSans-56"/>
     <use xlink:href="#DejaVuSans-5c" transform="translate(52.09375 0)"/>
     <use xlink:href="#DejaVuSans-50" transform="translate(111.28125 0)"/>
     <use xlink:href="#DejaVuSans-50" transform="translate(208.6875 0)"/>
     <use xlink:href="#DejaVuSans-48" transform="translate(306.09375 0)"/>
     <use xlink:href="#DejaVuSans-57" transform="translate(367.625 0)"/>
     <use xlink:href="#DejaVuSans-55" transform="translate(406.828125 0)"/>
     <use xlink:href="#DejaVuSans-5c" transform="translate(447.9375 0)"/>
     <use xlink:href="#DejaVuSans-3" transform="translate(507.125 0)"/>
     <use xlink:href="#DejaVuSans-12" transform="translate(538.90625 0)"/>
     <use xlink:href="#DejaVuSans-3" transform="translate(572.59375 0)"/>
     <use xlink:href="#DejaVuSans-56" transform="translate(604.375 0)"/>
     <use xlink:href="#DejaVuSans-4f" transform="translate(656.46875 0)"/>
     <use xlink:href="#DejaVuSans-4c" transform="translate(684.25 0)"/>
     <use xlink:href="#DejaVuSans-53" transform="translate(712.03125 0)"/>
    </g>
   </g>
   <g id="text_12">
    <!-- square cylinder -->
    <g transform="translate(216.222137 187.795786) scale(0.105 -0.105)">
     <defs>
      <path id="DejaVuSans-54" d="M 947 1747 
Q 947 1113 1208 752 
Q 1469 391 1925 391 
Q 2381 391 2643 752 
Q 2906 1113 2906 1747 
Q 2906 2381 2643 2742 
Q 2381 3103 1925 3103 
Q 1469 3103 1208 2742 
Q 947 2381 947 1747 
z
M 2906 525 
Q 2725 213 2448 61 
Q 2172 -91 1784 -91 
Q 1150 -91 751 415 
Q 353 922 353 1747 
Q 353 2572 751 3078 
Q 1150 3584 1784 3584 
Q 2172 3584 2448 3432 
Q 2725 3281 2906 2969 
L 2906 3500 
L 3481 3500 
L 3481 -1331 
L 2906 -1331 
L 2906 525 
z
" transform="scale(0.015625)"/>
      <path id="DejaVuSans-58" d="M 544 1381 
L 544 3500 
L 1119 3500 
L 1119 1403 
Q 1119 906 1312 657 
Q 1506 409 1894 409 
Q 2359 409 2629 706 
Q 2900 1003 2900 1516 
L 2900 3500 
L 3475 3500 
L 3475 0 
L 2900 0 
L 2900 538 
Q 2691 219 2414 64 
Q 2138 -91 1772 -91 
Q 1169 -91 856 284 
Q 544 659 544 1381 
z
M 1991 3584 
L 1991 3584 
z
" transform="scale(0.015625)"/>
      <path id="DejaVuSans-44" d="M 2194 1759 
Q 1497 1759 1228 1600 
Q 959 1441 959 1056 
Q 959 750 1161 570 
Q 1363 391 1709 391 
Q 2188 391 2477 730 
Q 2766 1069 2766 1631 
L 2766 1759 
L 2194 1759 
z
M 3341 1997 
L 3341 0 
L 2766 0 
L 2766 531 
Q 2569 213 2275 61 
Q 1981 -91 1556 -91 
Q 1019 -91 701 211 
Q 384 513 384 1019 
Q 384 1609 779 1909 
Q 1175 2209 1959 2209 
L 2766 2209 
L 2766 2266 
Q 2766 2663 2505 2880 
Q 2244 3097 1772 3097 
Q 1472 3097 1187 3025 
Q 903 2953 641 2809 
L 641 3341 
Q 956 3463 1253 3523 
Q 1550 3584 1831 3584 
Q 2591 3584 2966 3190 
Q 3341 2797 3341 1997 
z
" transform="scale(0.015625)"/>
      <path id="DejaVuSans-46" d="M 3122 3366 
L 3122 2828 
Q 2878 2963 2633 3030 
Q 2388 3097 2138 3097 
Q 1578 3097 1268 2742 
Q 959 2388 959 1747 
Q 959 1106 1268 751 
Q 1578 397 2138 397 
Q 2388 397 2633 464 
Q 2878 531 3122 666 
L 3122 134 
Q 2881 22 2623 -34 
Q 2366 -91 2075 -91 
Q 1284 -91 818 406 
Q 353 903 353 1747 
Q 353 2603 823 3093 
Q 1294 3584 2113 3584 
Q 2378 3584 2631 3529 
Q 2884 3475 3122 3366 
z
" transform="scale(0.015625)"/>
      <path id="DejaVuSans-51" d="M 3513 2113 
L 3513 0 
L 2938 0 
L 2938 2094 
Q 2938 2591 2744 2837 
Q 2550 3084 2163 3084 
Q 1697 3084 1428 2787 
Q 1159 2491 1159 1978 
L 1159 0 
L 581 0 
L 581 3500 
L 1159 3500 
L 1159 2956 
Q 1366 3272 1645 3428 
Q 1925 3584 2291 3584 
Q 2894 3584 3203 3211 
Q 3513 2838 3513 2113 
z
" transform="scale(0.015625)"/>
      <path id="DejaVuSans-47" d="M 2906 2969 
L 2906 4863 
L 3481 4863 
L 3481 0 
L 2906 0 
L 2906 525 
Q 2725 213 2448 61 
Q 2172 -91 1784 -91 
Q 1150 -91 751 415 
Q 353 922 353 1747 
Q 353 2572 751 3078 
Q 1150 3584 1784 3584 
Q 2172 3584 2448 3432 
Q 2725 3281 2906 2969 
z
M 947 1747 
Q 947 1113 1208 752 
Q 1469 391 1925 391 
Q 2381 391 2643 752 
Q 2906 1113 2906 1747 
Q 2906 2381 2643 2742 
Q 2381 3103 1925 3103 
Q 1469 3103 1208 2742 
Q 947 2381 947 1747 
z
" transform="scale(0.015625)"/>
     </defs>
     <use xlink:href="#DejaVuSans-56"/>
     <use xlink:href="#DejaVuSans-54" transform="translate(52.09375 0)"/>
     <use xlink:href="#DejaVuSans-58" transform="translate(115.578125 0)"/>
     <use xlink:href="#DejaVuSans-44" transform="translate(178.953125 0)"/>
     <use xlink:href="#DejaVuSans-55" transform="translate(240.234375 0)"/>
     <use xlink:href="#DejaVuSans-48" transform="translate(279.140625 0)"/>
     <use xlink:href="#DejaVuSans-3" transform="translate(340.671875 0)"/>
     <use xlink:href="#DejaVuSans-46" transform="translate(372.453125 0)"/>
     <use xlink:href="#DejaVuSans-5c" transform="translate(427.4375 0)"/>
     <use xlink:href="#DejaVuSans-4f" transform="translate(486.625 0)"/>
     <use xlink:href="#DejaVuSans-4c" transform="translate(514.40625 0)"/>
     <use xlink:href="#DejaVuSans-51" transform="translate(542.1875 0)"/>
     <use xlink:href="#DejaVuSans-47" transform="translate(605.5625 0)"/>
     <use xlink:href="#DejaVuSans-48" transform="translate(669.046875 0)"/>
     <use xlink:href="#DejaVuSans-55" transform="translate(730.578125 0)"/>
    </g>
   </g>
   <g id="text_13">
    <!-- pressure outlet -->
    <g transform="translate(446.291307 225.541509) scale(0.105 -0.105)">
     <defs>
      <path id="DejaVuSans-52" d="M 1959 3097 
Q 1497 3097 1228 2736 
Q 959 2375 959 1747 
Q 959 1119 1226 758 
Q 1494 397 1959 397 
Q 2419 397 2687 759 
Q 2956 1122 2956 1747 
Q 2956 2369 2687 2733 
Q 2419 3097 1959 3097 
z
M 1959 3584 
Q 2709 3584 3137 3096 
Q 3566 2609 3566 1747 
Q 3566 888 3137 398 
Q 2709 -91 1959 -91 
Q 1206 -91 779 398 
Q 353 888 353 1747 
Q 353 2609 779 3096 
Q 1206 3584 1959 3584 
z
" transform="scale(0.015625)"/>
     </defs>
     <use xlink:href="#DejaVuSans-53"/>
     <use xlink:href="#DejaVuSans-55" transform="translate(63.484375 0)"/>
     <use xlink:href="#DejaVuSans-48" transform="translate(102.390625 0)"/>
     <use xlink:href="#DejaVuSans-56" transform="translate(163.921875 0)"/>
     <use xlink:href="#DejaVuSans-56" transform="translate(216.015625 0)"/>
     <use xlink:href="#DejaVuSans-58" transform="translate(268.109375 0)"/>
     <use xlink:href="#DejaVuSans-55" transform="translate(331.484375 0)"/>
     <use xlink:href="#DejaVuSans-48" transform="translate(370.390625 0)"/>
     <use xlink:href="#DejaVuSans-3" transform="translate(431.921875 0)"/>
     <use xlink:href="#DejaVuSans-52" transform="translate(463.703125 0)"/>
     <use xlink:href="#DejaVuSans-58" transform="translate(524.890625 0)"/>
     <use xlink:href="#DejaVuSans-57" transform="translate(588.265625 0)"/>
     <use xlink:href="#DejaVuSans-4f" transform="translate(627.46875 0)"/>
     <use xlink:href="#DejaVuSans-48" transform="translate(655.25 0)"/>
     <use xlink:href="#DejaVuSans-57" transform="translate(716.78125 0)"/>
    </g>
   </g>
   <g id="text_14">
    <!-- $L_u=10D$ -->
    <g transform="translate(108.569476 297.579961) scale(0.105 -0.105)">
     <defs>
      <path id="DejaVuSans-Oblique-2f" d="M 1075 4666 
L 1709 4666 
L 909 525 
L 3181 525 
L 3078 0 
L 172 0 
L 1075 4666 
z
" transform="scale(0.015625)"/>
      <path id="DejaVuSans-Oblique-58" d="M 428 1388 
L 838 3500 
L 1416 3500 
L 1006 1409 
Q 975 1256 961 1147 
Q 947 1038 947 966 
Q 947 700 1109 554 
Q 1272 409 1569 409 
Q 2031 409 2368 721 
Q 2706 1034 2809 1563 
L 3194 3500 
L 3769 3500 
L 3091 0 
L 2516 0 
L 2631 550 
Q 2388 244 2052 76 
Q 1716 -91 1338 -91 
Q 878 -91 622 161 
Q 366 413 366 863 
Q 366 956 381 1097 
Q 397 1238 428 1388 
z
" transform="scale(0.015625)"/>
      <path id="DejaVuSans-20" d="M 678 2906 
L 4684 2906 
L 4684 2381 
L 678 2381 
L 678 2906 
z
M 678 1631 
L 4684 1631 
L 4684 1100 
L 678 1100 
L 678 1631 
z
" transform="scale(0.015625)"/>
     </defs>
     <use xlink:href="#DejaVuSans-Oblique-2f" transform="translate(0 0.78125)"/>
     <use xlink:href="#DejaVuSans-Oblique-58" transform="translate(55.712891 -14.218701) scale(0.7)"/>
     <use xlink:href="#DejaVuSans-20" transform="translate(122.294922 0.78125)"/>
     <use xlink:href="#DejaVuSans-14" transform="translate(225.566406 0.78125)"/>
     <use xlink:href="#DejaVuSans-13" transform="translate(289.189453 0.78125)"/>
     <use xlink:href="#DejaVuSans-Oblique-27" transform="translate(352.8125 0.78125)"/>
    </g>
   </g>
   <g id="text_15">
    <!-- $L_d=20D$ -->
    <g transform="translate(300.293783 297.579961) scale(0.105 -0.105)">
     <defs>
      <path id="DejaVuSans-Oblique-47" d="M 2675 525 
Q 2444 222 2128 65 
Q 1813 -91 1428 -91 
Q 903 -91 598 267 
Q 294 625 294 1247 
Q 294 1766 478 2236 
Q 663 2706 1013 3078 
Q 1244 3325 1534 3454 
Q 1825 3584 2144 3584 
Q 2481 3584 2739 3421 
Q 2997 3259 3138 2956 
L 3513 4863 
L 4091 4863 
L 3144 0 
L 2566 0 
L 2675 525 
z
M 891 1350 
Q 891 897 1095 644 
Q 1300 391 1663 391 
Q 1931 391 2161 520 
Q 2391 650 2566 903 
Q 2750 1166 2856 1509 
Q 2963 1853 2963 2188 
Q 2963 2622 2758 2865 
Q 2553 3109 2194 3109 
Q 1922 3109 1687 2981 
Q 1453 2853 1288 2613 
Q 1106 2353 998 2009 
Q 891 1666 891 1350 
z
" transform="scale(0.015625)"/>
     </defs>
     <use xlink:href="#DejaVuSans-Oblique-2f" transform="translate(0 0.78125)"/>
     <use xlink:href="#DejaVuSans-Oblique-47" transform="translate(55.712891 -14.218701) scale(0.7)"/>
     <use xlink:href="#DejaVuSans-20" transform="translate(122.363281 0.78125)"/>
     <use xlink:href="#DejaVuSans-15" transform="translate(225.634766 0.78125)"/>
     <use xlink:href="#DejaVuSans-13" transform="translate(289.257812 0.78125)"/>
     <use xlink:href="#DejaVuSans-Oblique-27" transform="translate(352.880859 0.78125)"/>
    </g>
   </g>
   <g id="text_16">
    <!-- $H=10D$ -->
    <g transform="translate(393.898107 173.272722) rotate(-90) scale(0.105 -0.105)">
     <defs>
      <path id="DejaVuSans-Oblique-2b" d="M 1081 4666 
L 1716 4666 
L 1344 2753 
L 3634 2753 
L 4006 4666 
L 4641 4666 
L 3731 0 
L 3097 0 
L 3531 2222 
L 1241 2222 
L 806 0 
L 172 0 
L 1081 4666 
z
" transform="scale(0.015625)"/>
     </defs>
     <use xlink:href="#DejaVuSans-Oblique-2b" transform="translate(0 0.78125)"/>
     <use xlink:href="#DejaVuSans-20" transform="translate(94.677734 0.78125)"/>
     <use xlink:href="#DejaVuSans-14" transform="translate(197.949219 0.78125)"/>
     <use xlink:href="#DejaVuSans-13" transform="translate(261.572266 0.78125)"/>
     <use xlink:href="#DejaVuSans-Oblique-27" transform="translate(325.195312 0.78125)"/>
    </g>
   </g>
   <g id="text_17">
    <!-- Baseline computational domain -->
    <g transform="translate(164.985946 67.028945) scale(0.126 -0.126)">
     <defs>
      <path id="DejaVuSans-25" d="M 1259 2228 
L 1259 519 
L 2272 519 
Q 2781 519 3026 730 
Q 3272 941 3272 1375 
Q 3272 1813 3026 2020 
Q 2781 2228 2272 2228 
L 1259 2228 
z
M 1259 4147 
L 1259 2741 
L 2194 2741 
Q 2656 2741 2882 2914 
Q 3109 3088 3109 3444 
Q 3109 3797 2882 3972 
Q 2656 4147 2194 4147 
L 1259 4147 
z
M 628 4666 
L 2241 4666 
Q 2963 4666 3353 4366 
Q 3744 4066 3744 3513 
Q 3744 3084 3544 2831 
Q 3344 2578 2956 2516 
Q 3422 2416 3680 2098 
Q 3938 1781 3938 1306 
Q 3938 681 3513 340 
Q 3088 0 2303 0 
L 628 0 
L 628 4666 
z
" transform="scale(0.015625)"/>
     </defs>
     <use xlink:href="#DejaVuSans-25"/>
     <use xlink:href="#DejaVuSans-44" transform="translate(68.609375 0)"/>
     <use xlink:href="#DejaVuSans-56" transform="translate(129.890625 0)"/>
     <use xlink:href="#DejaVuSans-48" transform="translate(181.984375 0)"/>
     <use xlink:href="#DejaVuSans-4f" transform="translate(243.515625 0)"/>
     <use xlink:href="#DejaVuSans-4c" transform="translate(271.296875 0)"/>
     <use xlink:href="#DejaVuSans-51" transform="translate(299.078125 0)"/>
     <use xlink:href="#DejaVuSans-48" transform="translate(362.453125 0)"/>
     <use xlink:href="#DejaVuSans-3" transform="translate(423.984375 0)"/>
     <use xlink:href="#DejaVuSans-46" transform="translate(455.765625 0)"/>
     <use xlink:href="#DejaVuSans-52" transform="translate(510.75 0)"/>
     <use xlink:href="#DejaVuSans-50" transform="translate(571.9375 0)"/>
     <use xlink:href="#DejaVuSans-53" transform="translate(669.34375 0)"/>
     <use xlink:href="#DejaVuSans-58" transform="translate(732.828125 0)"/>
     <use xlink:href="#DejaVuSans-57" transform="translate(796.203125 0)"/>
     <use xlink:href="#DejaVuSans-44" transform="translate(835.40625 0)"/>
     <use xlink:href="#DejaVuSans-57" transform="translate(896.6875 0)"/>
     <use xlink:href="#DejaVuSans-4c" transform="translate(935.890625 0)"/>
     <use xlink:href="#DejaVuSans-52" transform="translate(963.671875 0)"/>
     <use xlink:href="#DejaVuSans-51" transform="translate(1024.859375 0)"/>
     <use xlink:href="#DejaVuSans-44" transform="translate(1088.234375 0)"/>
     <use xlink:href="#DejaVuSans-4f" transform="translate(1149.515625 0)"/>
     <use xlink:href="#DejaVuSans-3" transform="translate(1177.296875 0)"/>
     <use xlink:href="#DejaVuSans-47" transform="translate(1209.078125 0)"/>
     <use xlink:href="#DejaVuSans-52" transform="translate(1272.5625 0)"/>
     <use xlink:href="#DejaVuSans-50" transform="translate(1333.75 0)"/>
     <use xlink:href="#DejaVuSans-44" transform="translate(1431.15625 0)"/>
     <use xlink:href="#DejaVuSans-4c" transform="translate(1492.4375 0)"/>
     <use xlink:href="#DejaVuSans-51" transform="translate(1520.21875 0)"/>
    </g>
   </g>
   <g id="patch_9">
    <path d="M 95.196168 140.132452 
Q 119.161707 140.132452 142.009211 140.132452 
" clip-path="url(#p006c77abc1)" style="fill: none; stroke: #000000; stroke-linecap: round"/>
    <path d="M 137.609211 137.932452 
L 142.009211 140.132452 
L 137.609211 142.332452 
z
" clip-path="url(#p006c77abc1)" style="stroke: #000000; stroke-linecap: round"/>
   </g>
   <g id="patch_10">
    <path d="M 473.851676 230.60236 
Q 458.873214 230.60236 445.012787 230.60236 
" clip-path="url(#p006c77abc1)" style="fill: none; stroke: #000000; stroke-linecap: round"/>
    <path d="M 449.412787 232.80236 
L 445.012787 230.60236 
L 449.412787 228.40236 
z
" clip-path="url(#p006c77abc1)" style="stroke: #000000; stroke-linecap: round"/>
   </g>
   <g id="patch_11">
    <path d="M 72.348664 305.494668 
Q 131.144476 305.494668 189.940288 305.494668 
" clip-path="url(#p006c77abc1)" style="fill: none; stroke: #000000; stroke-linecap: round"/>
    <path d="M 76.748664 307.694668 
L 72.348664 305.494668 
L 76.748664 303.294668 
" clip-path="url(#p006c77abc1)" style="fill: none; stroke: #000000; stroke-linecap: round"/>
    <path d="M 185.540288 303.294668 
L 189.940288 305.494668 
L 185.540288 307.694668 
" clip-path="url(#p006c77abc1)" style="fill: none; stroke: #000000; stroke-linecap: round"/>
   </g>
   <g id="patch_12">
    <path d="M 204.159125 305.494668 
Q 322.868783 305.494668 441.578442 305.494668 
" clip-path="url(#p006c77abc1)" style="fill: none; stroke: #000000; stroke-linecap: round"/>
    <path d="M 208.559125 307.694668 
L 204.159125 305.494668 
L 208.559125 303.294668 
" clip-path="url(#p006c77abc1)" style="fill: none; stroke: #000000; stroke-linecap: round"/>
    <path d="M 437.178442 303.294668 
L 441.578442 305.494668 
L 437.178442 307.694668 
" clip-path="url(#p006c77abc1)" style="fill: none; stroke: #000000; stroke-linecap: round"/>
   </g>
   <g id="patch_13">
    <path d="M 400.756783 210.911034 
Q 400.756783 152.115222 400.756783 93.319409 
" clip-path="url(#p006c77abc1)" style="fill: none; stroke: #000000; stroke-linecap: round"/>
    <path d="M 402.956783 206.511034 
L 400.756783 210.911034 
L 398.556783 206.511034 
" clip-path="url(#p006c77abc1)" style="fill: none; stroke: #000000; stroke-linecap: round"/>
    <path d="M 398.556783 97.719409 
L 400.756783 93.319409 
L 402.956783 97.719409 
" clip-path="url(#p006c77abc1)" style="fill: none; stroke: #000000; stroke-linecap: round"/>
   </g>
  </g>
  <g id="axes_2">
   <g id="patch_14">
    <path d="M 559.705438 344.114166 
L 860.962383 344.114166 
L 860.962383 77.547415 
L 559.705438 77.547415 
z
" style="fill: #ffffff"/>
   </g>
   <g id="matplotlib.axis_3">
    <g id="text_18">
     <!-- $x/D$ -->
     <g transform="translate(701.40891 356.091705) scale(0.105 -0.105)">
      <use xlink:href="#DejaVuSans-Oblique-5b" transform="translate(0 0.09375)"/>
      <use xlink:href="#DejaVuSans-12" transform="translate(59.179688 0.09375)"/>
      <use xlink:href="#DejaVuSans-Oblique-27" transform="translate(92.871094 0.09375)"/>
     </g>
    </g>
   </g>
   <g id="matplotlib.axis_4">
    <g id="text_19">
     <!-- $y/D$ -->
     <g transform="translate(553.182977 219.755791) rotate(-90) scale(0.105 -0.105)">
      <use xlink:href="#DejaVuSans-Oblique-5c" transform="translate(0 0.09375)"/>
      <use xlink:href="#DejaVuSans-12" transform="translate(59.179688 0.09375)"/>
      <use xlink:href="#DejaVuSans-Oblique-27" transform="translate(92.871094 0.09375)"/>
     </g>
    </g>
   </g>
   <g id="line2d_15">
    <path d="M 664.688919 260.127382 
L 664.688919 289.340176 
" clip-path="url(#p17e78e6e3c)" style="fill: none; stroke: #000000; stroke-width: 0.8"/>
   </g>
   <g id="line2d_16">
    <path d="M 755.978902 260.127382 
L 755.978902 289.340176 
" clip-path="url(#p17e78e6e3c)" style="fill: none; stroke: #000000; stroke-width: 0.8"/>
   </g>
   <g id="line2d_17">
    <path d="M 664.688919 260.127382 
L 635.476124 260.127382 
" clip-path="url(#p17e78e6e3c)" style="fill: none; stroke: #000000; stroke-width: 0.8"/>
   </g>
   <g id="line2d_18">
    <path d="M 664.688919 168.837398 
L 635.476124 168.837398 
" clip-path="url(#p17e78e6e3c)" style="fill: none; stroke: #000000; stroke-width: 0.8"/>
   </g>
   <g id="patch_15">
    <path d="M 559.705438 344.114166 
L 559.705438 77.547415 
" style="fill: none; stroke: #000000; stroke-width: 0.8; stroke-linejoin: miter; stroke-linecap: square"/>
   </g>
   <g id="patch_16">
    <path d="M 860.962383 344.114166 
L 860.962383 77.547415 
" style="fill: none; stroke: #000000; stroke-width: 0.8; stroke-linejoin: miter; stroke-linecap: square"/>
   </g>
   <g id="patch_17">
    <path d="M 559.705438 344.114166 
L 860.962383 344.114166 
" style="fill: none; stroke: #000000; stroke-width: 0.8; stroke-linejoin: miter; stroke-linecap: square"/>
   </g>
   <g id="patch_18">
    <path d="M 559.705438 77.547415 
L 860.962383 77.547415 
" style="fill: none; stroke: #000000; stroke-width: 0.8; stroke-linejoin: miter; stroke-linecap: square"/>
   </g>
   <g id="patch_19">
    <path d="M 664.688919 260.127382 
L 755.978902 260.127382 
L 755.978902 168.837398 
L 664.688919 168.837398 
z
" clip-path="url(#p17e78e6e3c)" style="fill: #c7c7c7; stroke: #000000; stroke-width: 1.2; stroke-linejoin: miter"/>
   </g>
   <g id="text_20">
    <!-- $U_\infty$ -->
    <g transform="translate(605.35043 104.117632) scale(0.11 -0.11)">
     <use xlink:href="#DejaVuSans-Oblique-38" transform="translate(0 0.09375)"/>
     <use xlink:href="#DejaVuSans-ca8" transform="translate(73.193359 -14.906201) scale(0.7)"/>
    </g>
   </g>
   <g id="text_21">
    <!-- $D$ -->
    <g transform="translate(706.04391 315.955595) scale(0.11 -0.11)">
     <use xlink:href="#DejaVuSans-Oblique-27" transform="translate(0 0.09375)"/>
    </g>
   </g>
   <g id="text_22">
    <!-- $D$ -->
    <g transform="translate(610.946551 218.77239) rotate(-90) scale(0.11 -0.11)">
     <use xlink:href="#DejaVuSans-Oblique-27" transform="translate(0 0.09375)"/>
    </g>
   </g>
   <g id="text_23">
    <!-- Square body and length D -->
    <g transform="translate(627.777332 71.547415) scale(0.126 -0.126)">
     <defs>
      <path id="DejaVuSans-36" d="M 3425 4513 
L 3425 3897 
Q 3066 4069 2747 4153 
Q 2428 4238 2131 4238 
Q 1616 4238 1336 4038 
Q 1056 3838 1056 3469 
Q 1056 3159 1242 3001 
Q 1428 2844 1947 2747 
L 2328 2669 
Q 3034 2534 3370 2195 
Q 3706 1856 3706 1288 
Q 3706 609 3251 259 
Q 2797 -91 1919 -91 
Q 1588 -91 1214 -16 
Q 841 59 441 206 
L 441 856 
Q 825 641 1194 531 
Q 1563 422 1919 422 
Q 2459 422 2753 634 
Q 3047 847 3047 1241 
Q 3047 1584 2836 1778 
Q 2625 1972 2144 2069 
L 1759 2144 
Q 1053 2284 737 2584 
Q 422 2884 422 3419 
Q 422 4038 858 4394 
Q 1294 4750 2059 4750 
Q 2388 4750 2728 4690 
Q 3069 4631 3425 4513 
z
" transform="scale(0.015625)"/>
      <path id="DejaVuSans-45" d="M 3116 1747 
Q 3116 2381 2855 2742 
Q 2594 3103 2138 3103 
Q 1681 3103 1420 2742 
Q 1159 2381 1159 1747 
Q 1159 1113 1420 752 
Q 1681 391 2138 391 
Q 2594 391 2855 752 
Q 3116 1113 3116 1747 
z
M 1159 2969 
Q 1341 3281 1617 3432 
Q 1894 3584 2278 3584 
Q 2916 3584 3314 3078 
Q 3713 2572 3713 1747 
Q 3713 922 3314 415 
Q 2916 -91 2278 -91 
Q 1894 -91 1617 61 
Q 1341 213 1159 525 
L 1159 0 
L 581 0 
L 581 4863 
L 1159 4863 
L 1159 2969 
z
" transform="scale(0.015625)"/>
      <path id="DejaVuSans-4a" d="M 2906 1791 
Q 2906 2416 2648 2759 
Q 2391 3103 1925 3103 
Q 1463 3103 1205 2759 
Q 947 2416 947 1791 
Q 947 1169 1205 825 
Q 1463 481 1925 481 
Q 2391 481 2648 825 
Q 2906 1169 2906 1791 
z
M 3481 434 
Q 3481 -459 3084 -895 
Q 2688 -1331 1869 -1331 
Q 1566 -1331 1297 -1286 
Q 1028 -1241 775 -1147 
L 775 -588 
Q 1028 -725 1275 -790 
Q 1522 -856 1778 -856 
Q 2344 -856 2625 -561 
Q 2906 -266 2906 331 
L 2906 616 
Q 2728 306 2450 153 
Q 2172 0 1784 0 
Q 1141 0 747 490 
Q 353 981 353 1791 
Q 353 2603 747 3093 
Q 1141 3584 1784 3584 
Q 2172 3584 2450 3431 
Q 2728 3278 2906 2969 
L 2906 3500 
L 3481 3500 
L 3481 434 
z
" transform="scale(0.015625)"/>
      <path id="DejaVuSans-4b" d="M 3513 2113 
L 3513 0 
L 2938 0 
L 2938 2094 
Q 2938 2591 2744 2837 
Q 2550 3084 2163 3084 
Q 1697 3084 1428 2787 
Q 1159 2491 1159 1978 
L 1159 0 
L 581 0 
L 581 4863 
L 1159 4863 
L 1159 2956 
Q 1366 3272 1645 3428 
Q 1925 3584 2291 3584 
Q 2894 3584 3203 3211 
Q 3513 2838 3513 2113 
z
" transform="scale(0.015625)"/>
      <path id="DejaVuSans-27" d="M 1259 4147 
L 1259 519 
L 2022 519 
Q 2988 519 3436 956 
Q 3884 1394 3884 2338 
Q 3884 3275 3436 3711 
Q 2988 4147 2022 4147 
L 1259 4147 
z
M 628 4666 
L 1925 4666 
Q 3281 4666 3915 4102 
Q 4550 3538 4550 2338 
Q 4550 1131 3912 565 
Q 3275 0 1925 0 
L 628 0 
L 628 4666 
z
" transform="scale(0.015625)"/>
     </defs>
     <use xlink:href="#DejaVuSans-36"/>
     <use xlink:href="#DejaVuSans-54" transform="translate(63.484375 0)"/>
     <use xlink:href="#DejaVuSans-58" transform="translate(126.96875 0)"/>
     <use xlink:href="#DejaVuSans-44" transform="translate(190.34375 0)"/>
     <use xlink:href="#DejaVuSans-55" transform="translate(251.625 0)"/>
     <use xlink:href="#DejaVuSans-48" transform="translate(290.53125 0)"/>
     <use xlink:href="#DejaVuSans-3" transform="translate(352.0625 0)"/>
     <use xlink:href="#DejaVuSans-45" transform="translate(383.84375 0)"/>
     <use xlink:href="#DejaVuSans-52" transform="translate(447.328125 0)"/>
     <use xlink:href="#DejaVuSans-47" transform="translate(508.515625 0)"/>
     <use xlink:href="#DejaVuSans-5c" transform="translate(572 0)"/>
     <use xlink:href="#DejaVuSans-3" transform="translate(631.1875 0)"/>
     <use xlink:href="#DejaVuSans-44" transform="translate(662.96875 0)"/>
     <use xlink:href="#DejaVuSans-51" transform="translate(724.25 0)"/>
     <use xlink:href="#DejaVuSans-47" transform="translate(787.625 0)"/>
     <use xlink:href="#DejaVuSans-3" transform="translate(851.109375 0)"/>
     <use xlink:href="#DejaVuSans-4f" transform="translate(882.890625 0)"/>
     <use xlink:href="#DejaVuSans-48" transform="translate(910.671875 0)"/>
     <use xlink:href="#DejaVuSans-51" transform="translate(972.203125 0)"/>
     <use xlink:href="#DejaVuSans-4a" transform="translate(1035.578125 0)"/>
     <use xlink:href="#DejaVuSans-57" transform="translate(1099.0625 0)"/>
     <use xlink:href="#DejaVuSans-4b" transform="translate(1138.265625 0)"/>
     <use xlink:href="#DejaVuSans-3" transform="translate(1201.640625 0)"/>
     <use xlink:href="#DejaVuSans-27" transform="translate(1233.421875 0)"/>
    </g>
   </g>
   <g id="patch_20">
    <path d="M 605.35043 120.453707 
Q 710.33391 120.453707 814.199357 120.453707 
" clip-path="url(#p17e78e6e3c)" style="fill: none; stroke: #000000; stroke-linecap: round"/>
    <path d="M 809.799357 118.253707 
L 814.199357 120.453707 
L 809.799357 122.653707 
z
" clip-path="url(#p17e78e6e3c)" style="stroke: #000000; stroke-linecap: round"/>
   </g>
   <g id="patch_21">
    <path d="M 665.806953 289.340176 
Q 710.33391 289.340176 754.860868 289.340176 
" clip-path="url(#p17e78e6e3c)" style="fill: none; stroke: #000000; stroke-linecap: round"/>
    <path d="M 670.206953 291.540176 
L 665.806953 289.340176 
L 670.206953 287.140176 
" clip-path="url(#p17e78e6e3c)" style="fill: none; stroke: #000000; stroke-linecap: round"/>
    <path d="M 750.460868 287.140176 
L 754.860868 289.340176 
L 750.460868 291.540176 
" clip-path="url(#p17e78e6e3c)" style="fill: none; stroke: #000000; stroke-linecap: round"/>
   </g>
   <g id="patch_22">
    <path d="M 635.476124 259.009348 
Q 635.476124 214.48239 635.476124 169.955432 
" clip-path="url(#p17e78e6e3c)" style="fill: none; stroke: #000000; stroke-linecap: round"/>
    <path d="M 637.676124 254.609348 
L 635.476124 259.009348 
L 633.276124 254.609348 
" clip-path="url(#p17e78e6e3c)" style="fill: none; stroke: #000000; stroke-linecap: round"/>
    <path d="M 633.276124 174.355432 
L 635.476124 169.955432 
L 637.676124 174.355432 
" clip-path="url(#p17e78e6e3c)" style="fill: none; stroke: #000000; stroke-linecap: round"/>
   </g>
  </g>
  <g id="text_24">
   <!-- Square-cylinder external-flow domain -->
   <g transform="translate(292.178555 18.597656) scale(0.15 -0.15)">
    <defs>
     <path id="DejaVuSans-10" d="M 313 2009 
L 1997 2009 
L 1997 1497 
L 313 1497 
L 313 2009 
z
" transform="scale(0.015625)"/>
     <path id="DejaVuSans-5b" d="M 3513 3500 
L 2247 1797 
L 3578 0 
L 2900 0 
L 1881 1375 
L 863 0 
L 184 0 
L 1544 1831 
L 300 3500 
L 978 3500 
L 1906 2253 
L 2834 3500 
L 3513 3500 
z
" transform="scale(0.015625)"/>
     <path id="DejaVuSans-13b0" d="M 1831 4863 
L 3431 4863 
L 3431 0 
L 2853 0 
L 2853 4384 
L 1825 4384 
Q 1516 4384 1395 4259 
Q 1275 4134 1275 3809 
L 1275 3500 
L 2222 3500 
L 2222 3053 
L 1275 3053 
L 1275 0 
L 697 0 
L 697 3053 
L 147 3053 
L 147 3500 
L 697 3500 
L 697 3744 
Q 697 4328 969 4595 
Q 1241 4863 1831 4863 
z
" transform="scale(0.015625)"/>
     <path id="DejaVuSans-5a" d="M 269 3500 
L 844 3500 
L 1563 769 
L 2278 3500 
L 2956 3500 
L 3675 769 
L 4391 3500 
L 4966 3500 
L 4050 0 
L 3372 0 
L 2619 2869 
L 1863 0 
L 1184 0 
L 269 3500 
z
" transform="scale(0.015625)"/>
    </defs>
    <use xlink:href="#DejaVuSans-36"/>
    <use xlink:href="#DejaVuSans-54" transform="translate(63.484375 0)"/>
    <use xlink:href="#DejaVuSans-58" transform="translate(126.96875 0)"/>
    <use xlink:href="#DejaVuSans-44" transform="translate(190.34375 0)"/>
    <use xlink:href="#DejaVuSans-55" transform="translate(251.625 0)"/>
    <use xlink:href="#DejaVuSans-48" transform="translate(290.53125 0)"/>
    <use xlink:href="#DejaVuSans-10" transform="translate(352.0625 0)"/>
    <use xlink:href="#DejaVuSans-46" transform="translate(388.140625 0)"/>
    <use xlink:href="#DejaVuSans-5c" transform="translate(443.125 0)"/>
    <use xlink:href="#DejaVuSans-4f" transform="translate(502.3125 0)"/>
    <use xlink:href="#DejaVuSans-4c" transform="translate(530.09375 0)"/>
    <use xlink:href="#DejaVuSans-51" transform="translate(557.875 0)"/>
    <use xlink:href="#DejaVuSans-47" transform="translate(621.25 0)"/>
    <use xlink:href="#DejaVuSans-48" transform="translate(684.734375 0)"/>
    <use xlink:href="#DejaVuSans-55" transform="translate(746.265625 0)"/>
    <use xlink:href="#DejaVuSans-3" transform="translate(787.375 0)"/>
    <use xlink:href="#DejaVuSans-48" transform="translate(819.15625 0)"/>
    <use xlink:href="#DejaVuSans-5b" transform="translate(878.9375 0)"/>
    <use xlink:href="#DejaVuSans-57" transform="translate(938.125 0)"/>
    <use xlink:href="#DejaVuSans-48" transform="translate(977.328125 0)"/>
    <use xlink:href="#DejaVuSans-55" transform="translate(1038.859375 0)"/>
    <use xlink:href="#DejaVuSans-51" transform="translate(1078.21875 0)"/>
    <use xlink:href="#DejaVuSans-44" transform="translate(1141.59375 0)"/>
    <use xlink:href="#DejaVuSans-4f" transform="translate(1202.875 0)"/>
    <use xlink:href="#DejaVuSans-10" transform="translate(1230.65625 0)"/>
    <use xlink:href="#DejaVuSans-13b0" transform="translate(1266.734375 0)"/>
    <use xlink:href="#DejaVuSans-52" transform="translate(1329.71875 0)"/>
    <use xlink:href="#DejaVuSans-5a" transform="translate(1390.90625 0)"/>
    <use xlink:href="#DejaVuSans-3" transform="translate(1472.6875 0)"/>
    <use xlink:href="#DejaVuSans-47" transform="translate(1504.46875 0)"/>
    <use xlink:href="#DejaVuSans-52" transform="translate(1567.953125 0)"/>
    <use xlink:href="#DejaVuSans-50" transform="translate(1629.140625 0)"/>
    <use xlink:href="#DejaVuSans-44" transform="translate(1726.546875 0)"/>
    <use xlink:href="#DejaVuSans-4c" transform="translate(1787.828125 0)"/>
    <use xlink:href="#DejaVuSans-51" transform="translate(1815.609375 0)"/>
   </g>
  </g>
 </g>
 <defs>
  <clipPath id="p006c77abc1">
   <rect x="50.859922" y="73.028945" width="427.784862" height="275.603692"/>
  </clipPath>
  <clipPath id="p17e78e6e3c">
   <rect x="559.705438" y="77.547415" width="301.256945" height="266.566751"/>
  </clipPath>
 </defs>
</svg>
